<?xml version="1.0" encoding="UTF-8"?>
<svg id="Layer_1" data-name="Layer 1" xmlns="http://www.w3.org/2000/svg" width="12.38" height="15.99" viewBox="0 0 12.38 15.99">
  <g>
    <path d="M.52,15.69c-.39-.39-.39-1.02,0-1.41l6.29-6.29L.52,1.69c-.38-.4-.37-1.03.02-1.41C.93-.09,1.54-.09,1.93.28l6.29,6.29c.78.78.78,2.05,0,2.83L1.93,15.69c-.39.39-1.02.39-1.41,0Z" fill="#fff" fill-rule="evenodd"/>
    <rect x="10.46" y="0" width="1.92" height="15.99" rx=".66" ry=".66" transform="translate(22.84 15.99) rotate(180)" fill="#fff"/>
  </g>
  <g>
    <path d="M.29,15.69c-.39-.39-.39-1.02,0-1.41l6.29-6.29L.29,1.69C-.09,1.3-.08.66.32.28.7-.09,1.32-.09,1.71.28l6.29,6.29c.78.78.78,2.05,0,2.83L1.71,15.69c-.39.39-1.02.39-1.41,0Z" fill="#fff" fill-rule="evenodd"/>
    <rect x="10.24" y="0" width="1.92" height="15.99" rx=".66" ry=".66" transform="translate(22.39 15.99) rotate(180)" fill="#fff"/>
  </g>
</svg>