<?xml version="1.0" encoding="UTF-8"?>
<svg id="Layer_1" data-name="Layer 1" xmlns="http://www.w3.org/2000/svg" width="17.53" height="19.26" viewBox="0 0 17.53 19.26">
  <path d="M9.97,4.19c-1.39,0-2.79.36-4.01,1.03-.39.22-.79.48-1.01.88s-.22.94.11,1.25c.29.27.77.27,1.09.06s.51-.61.52-1.01c0-.25-.06-.52-.23-.7-.21-.22-.53-.29-.82-.34-.63-.1-1.28-.18-1.89.01s-1.15.72-1.15,1.36c-.01,1.39.29,2.78.89,4.04.33.69.73,1.33,1.15,1.96.37.55.76,1.11,1.31,1.48.25.17.53.29.8.41.51.23,1.02.46,1.52.68.48.21.99.43,1.51.36.57-.09,1.03-.51,1.38-.97s.64-.97,1.08-1.35c.35-.31.78-.51,1.1-.85.49-.52.64-1.26.76-1.96.11-.64.21-1.29.31-1.93.14-.98.24-1.96.28-2.95.02-.35.03-.71-.06-1.05-.13-.48-.7-.65-1.19-.75-1.42-.28-2.83-.54-4.25-.8-1.25-.23-2.58.07-3.62.8-.33.23-.64.52-.82.87-.39.74-.2,1.64,0,2.46.22.89.44,1.79.9,2.57s1.22,1.45,2.12,1.58c1.27.19,2.65-.29,3.43-1.32s.83-2.58.04-3.59c-.08-.1-.16-.19-.27-.27-.49-.36-1.2-.19-1.72.14-1.05.66-1.73,1.87-1.74,3.1,0,.47.32.9.74,1.1s.92.18,1.36.03c1-.34,1.68-1.34,1.87-2.38.12-.67.04-1.44-.48-1.89-.41-.35-1-.41-1.52-.27s-.97.46-1.37.82c-.74.65-1.39,1.47-1.64,2.43s-.04,2.07.69,2.74c.41.37.94.58,1.48.66.57.08,1.17.02,1.68-.26s.89-.79.94-1.37c.02-.19,0-.38-.08-.56-.17-.38-.6-.59-1.02-.6s-.82.17-1.16.4c-.44.29-.84.68-1,1.17s-.06,1.11.36,1.43c.58.45,1.44.5,2.08.15s1.08-1.06,1.11-1.8-.32-1.47-.89-1.94c-.43-.36-.98-.56-1.52-.7-.8-.2-1.75-.24-2.33.34-.25.25-.41.6-.42.95-.02.37.45.6.8.48s.57-.45.72-.79c.19-.41.31-.85.39-1.3.11-.66.06-1.42-.44-1.86-.17-.14-.39-.25-.46-.46-.46-1.29-1.96-2.11-3.3-1.82-.2.04-.41.12-.52.3-.26.46-.28,1.02-.17,1.53s.34.99.55,1.48c.48,1.12.88,2.38.5,3.54-.17.51-.29,1.03-.36,1.56-.06.46-.09.96.16,1.36.2.34.57.55.94.67s.77.16,1.16.24c.36.08.72.18,1.08.26.48.1.98.15,1.47.15,1.54-.02,3.01-.58,4.44-1.14.28-.11.57-.22.74-.46s.16-.64-.1-.77" fill="none" fill-rule="evenodd" stroke="#14ae5c" stroke-miterlimit="10" stroke-width="4"/>
  <path d="M7.83.16c.61-.21,1.27-.21,1.88,0l5.86,2c1.28.44,2.09,1.69,1.95,3.03l-.76,7.79c-.08.84-.52,1.6-1.2,2.08l-5.12,3.66c-1,.71-2.33.72-3.34.03l-5.08-3.5c-.71-.49-1.16-1.26-1.25-2.12L.01,5.18c-.13-1.34.68-2.59,1.96-3.03L7.83.16h0ZM9.12,1.88c-.23-.08-.48-.08-.7,0l-5.86,2c-.48.16-.78.63-.73,1.14l.76,7.95c.03.32.2.61.47.8l5.08,3.49c.38.26.88.26,1.25-.01l5.12-3.66c.26-.18.42-.47.45-.78l.76-7.79c.05-.5-.26-.97-.73-1.14l-5.86-2Z" fill="#fff" fill-rule="evenodd"/>
</svg>