<?xml version="1.0" encoding="UTF-8"?>
<svg id="Layer_1" data-name="Layer 1" xmlns="http://www.w3.org/2000/svg" width="17.53" height="19.26" viewBox="0 0 17.53 19.26">
  <path d="M8.18,6.39c-.23.07-.39.27-.51.48-.39.65-.58,1.54-.12,2.13.32.41.87.57,1.38.63.55.06,1.12.04,1.63-.16s.97-.6,1.15-1.12c.26-.75-.12-1.64-.79-2.08s-1.56-.44-2.3-.14-1.34.87-1.8,1.53c-.24.35-.46.74-.44,1.17.02.57.46,1.05.98,1.28s1.11.23,1.67.18c.36-.03.75-.09,1.02-.33.66-.59.88-1.59.58-2.42s-1.06-1.46-1.93-1.64-1.79.07-2.49.61c-.15.12-.29.25-.42.4-.29.36-.47.83-.36,1.28s.54.82,1,.77c.13-.02.25-.06.36-.12.67-.36,1.02-1.23.78-1.96-.05-.16-.13-.31-.27-.4-.18-.11-.42-.08-.6.02s-.33.26-.46.43c-.36.44-.7.91-1,1.4s-.56.99-.67,1.55-.04,1.16.29,1.62c.21.29.5.5.8.69.21.13.42.25.64.36.33.17.74.13,1.04-.08s.46-.6.4-.96c-.02-.14-.19-.2-.33-.17s-.23.14-.32.25c-.36.4-.71.84-.87,1.35s-.09,1.14.31,1.5c.18.16.48.11.66-.06s.26-.4.34-.63c-.16.31-.32.64-.36.98s.05.73.32.96c.35.29.86.23,1.31.15s.96-.19,1.27-.55c.73-.87,1.54-1.72,2.54-2.25.39-.21.82-.38,1.13-.69.49-.49.62-1.25.56-1.94s-.25-1.37-.29-2.07c-.07-1.37.47-2.79.01-4.08-.18-.52-.81-.69-1.35-.78-1.34-.22-2.68-.38-4.03-.48-1.87-.14-3.65.89-5.02,2.17-.25.24-.5.48-.66.79-.39.7-.27,1.6.09,2.31.32.64.53,1.34.59,2.05.03.35.03.7.07,1.05.04.36.13.71.26,1.04.22.56.82.92,1.42,1.01s1.21-.04,1.8-.2c1.87-.53,3.63-1.43,5.14-2.65.05.41-.13.82-.4,1.13s-.63.53-1,.71c-1.34.65-2.85.83-4.32,1.04-.39.06-.87.19-.94.58-.04.22.09.45.27.59s.4.21.62.28c.42.13.84.24,1.27.28,1.06.08,2.09-.32,3.08-.72.31-.13.63-.25.89-.46" fill="none" fill-rule="evenodd" stroke="#ae1414" stroke-miterlimit="10" stroke-width="4"/>
  <path d="M7.83.16c.61-.21,1.27-.21,1.88,0l5.86,2c1.28.44,2.09,1.69,1.95,3.03l-.76,7.79c-.08.84-.52,1.6-1.2,2.08l-5.12,3.66c-1,.71-2.33.72-3.34.03l-5.08-3.5c-.71-.49-1.16-1.26-1.25-2.12L.01,5.18c-.13-1.34.68-2.59,1.96-3.03L7.83.16h0ZM9.12,1.88c-.23-.08-.48-.08-.7,0l-5.86,2c-.48.16-.78.63-.73,1.14l.76,7.95c.03.32.2.61.47.8l5.08,3.49c.38.26.88.26,1.25-.01l5.12-3.66c.26-.18.42-.47.45-.78l.76-7.79c.05-.5-.26-.97-.73-1.14l-5.86-2Z" fill="#fff" fill-rule="evenodd"/>
</svg>